<?xml version="1.0" encoding="utf-8"?>
<!-- Generator: Adobe Illustrator 27.5.0, SVG Export Plug-In . SVG Version: 6.00 Build 0)  -->
<svg version="1.1" id="Capa_1" xmlns="http://www.w3.org/2000/svg" xmlns:xlink="http://www.w3.org/1999/xlink" x="0px" y="0px"
	 viewBox="0 0 425.197 425.198" style="enable-background:new 0 0 425.197 425.198;" xml:space="preserve">
<path style="fill:#C64873;" d="M355.151,219.002H69.609l-0.062-0.425l6.083,42.002c2.394,2.125,4.851,4.18,7.358,6.169
	c6.249,4.956,12.798,9.512,19.53,13.786l-5.619-47.276c-0.519-4.363,2.537-7.961,6.794-7.961h13.399
	c4.257,0,8.062,3.599,8.452,7.961l5.118,57.262c0.184,2.06-0.589,3.905-1.951,5.177c0,0,0.001,0,0.001-0.001
	c8.784,4.713,17.767,9.146,26.953,13.036c1.082-0.72,2.412-1.143,3.87-1.143h12.273c3.899,0,7.203,3.02,7.339,6.684l0.11,2.958
	c1.075,0.315,2.152,0.624,3.232,0.918c5.549,1.515,11.186,2.727,16.873,3.59l-0.11-7.466c-0.054-3.664,3.092-6.684,6.991-6.684
	h12.273c3.9,0,7.045,3.02,6.992,6.684l-0.129,8.756c6.744-0.399,13.412-1.371,20.011-2.766l0.224-5.991
	c0.137-3.664,3.44-6.684,7.339-6.684h12.273c3.325,0,5.98,2.198,6.541,5.116c7.632-2.703,15.129-5.788,22.471-9.195
	c4.112-1.909,8.16-3.945,12.171-6.051h-5.76c-3.944,0-6.892-3.11-6.55-6.94l5.118-57.262c0.39-4.363,4.195-7.961,8.452-7.961h13.399
	c4.257,0,7.313,3.599,6.794,7.961l-6.692,56.301c0,0,0,0,0,0l0.022-0.187c2.523-1.419,5.043-2.844,7.564-4.266
	c6.157-3.471,12.305-7.009,18.37-10.688l8.14-56.21L355.151,219.002z M171.348,297.46h-12.412c-3.944,0-7.378-3.11-7.634-6.94
	l-3.825-57.262c-0.291-4.363,2.951-7.961,7.208-7.961h13.399c4.257,0,7.874,3.599,8.037,7.961l2.137,57.262
	C178.402,294.349,175.292,297.46,171.348,297.46z M225.858,290.52c-0.056,3.83-3.329,6.94-7.272,6.94h-12.412
	c-3.943,0-7.216-3.11-7.272-6.94l-0.844-57.262c-0.064-4.363,3.366-7.961,7.623-7.961h13.399c4.257,0,7.687,3.599,7.623,7.961
	L225.858,290.52z M277.282,233.258l-3.825,57.262c-0.256,3.83-3.69,6.94-7.634,6.94h-12.412c-3.943,0-7.054-3.11-6.911-6.94
	l2.137-57.262c0.163-4.363,3.78-7.961,8.037-7.961h13.399C274.331,225.296,277.573,228.895,277.282,233.258z"/>
<path style="fill:#BE4374;" d="M321.192,289.372l-0.136,1.147c-0.455,3.83-4.051,6.94-7.995,6.94h-6.652
	c-4.011,2.106-8.058,4.142-12.171,6.051c-7.342,3.408-14.84,6.492-22.471,9.195h0c0.046,0.24,0.077,0.484,0.096,0.732
	c0.001,0.018,0.004,0.035,0.005,0.053c0.017,0.257,0.019,0.518,0.001,0.783l-3.23,48.348c-0.136,2.032-1.417,3.826-3.247,4.885
	c-1.098,0.636-2.392,1.007-3.755,1.007h-11.44c-1.363,0-2.619-0.371-3.651-1.007c-1.719-1.06-2.814-2.853-2.738-4.885v0l0.166-4.442
	l1.415-37.916h0c-6.6,1.394-13.267,2.366-20.011,2.766l-0.584,39.592c-0.03,2.032-1.218,3.826-2.992,4.885
	c-1.064,0.636-2.34,1.007-3.703,1.007h-11.44c-1.363,0-2.639-0.371-3.703-1.007c-1.774-1.06-2.962-2.853-2.992-4.885l-0.602-40.882
	c-5.688-0.863-11.324-2.075-16.873-3.59c-1.08-0.295-2.157-0.603-3.232-0.918l1.48,39.674l0.213,5.716v0
	c0.076,2.032-1.019,3.825-2.738,4.885c-1.031,0.636-2.288,1.007-3.651,1.007h-11.44c-1.363,0-2.658-0.371-3.755-1.007
	c-1.829-1.06-3.111-2.853-3.247-4.885l-3.23-48.348c-0.018-0.262-0.014-0.52,0.001-0.775c0.005-0.08,0.015-0.157,0.023-0.236
	c0.017-0.177,0.04-0.352,0.072-0.524c0.016-0.085,0.033-0.169,0.053-0.252c0.039-0.171,0.087-0.339,0.141-0.505
	c0.023-0.07,0.043-0.142,0.068-0.211c0.085-0.231,0.18-0.457,0.291-0.675c0,0,0.001-0.001,0.001-0.001
	c0.111-0.217,0.239-0.424,0.375-0.626c0.04-0.059,0.084-0.115,0.126-0.173c0.104-0.142,0.212-0.281,0.327-0.415
	c0.052-0.06,0.105-0.119,0.159-0.178c0.123-0.132,0.253-0.258,0.387-0.379c0.05-0.045,0.098-0.092,0.149-0.136
	c0.19-0.161,0.389-0.315,0.599-0.455c-9.186-3.891-18.169-8.324-26.953-13.036c0,0-0.001,0.001-0.001,0.001
	c-0.142,0.132-0.29,0.258-0.444,0.377c-0.009,0.007-0.018,0.014-0.028,0.021c-0.147,0.112-0.299,0.218-0.456,0.318
	c-0.022,0.014-0.045,0.028-0.067,0.042c-0.147,0.091-0.299,0.177-0.454,0.257c-0.039,0.02-0.08,0.039-0.119,0.058
	c-0.143,0.07-0.289,0.137-0.439,0.197c-0.061,0.024-0.124,0.046-0.186,0.068c-0.134,0.049-0.27,0.097-0.409,0.138
	c-0.089,0.026-0.18,0.047-0.27,0.069c-0.12,0.03-0.239,0.062-0.362,0.086c-0.126,0.024-0.256,0.04-0.385,0.058
	c-0.094,0.013-0.186,0.03-0.281,0.039c-0.229,0.022-0.461,0.034-0.698,0.034h-12.412c-3.944,0-7.54-3.11-7.995-6.94l-1.187-9.986
	c-6.731-4.274-13.281-8.83-19.53-13.786c-2.508-1.989-4.965-4.043-7.358-6.169l0,0l14.917,103c0.597,4.126,2.481,7.786,5.208,10.598
	c3.507,3.616,8.41,5.829,13.769,5.829h205.712c9.529,0,17.612-6.997,18.978-16.427l12.912-89.161
	c-6.065,3.679-12.213,7.217-18.37,10.688C326.235,286.528,323.715,287.953,321.192,289.372z M134.621,367.507
	c-0.166,0.106-0.339,0.205-0.519,0.295c-0.448,0.227-0.934,0.405-1.45,0.526c-0.516,0.121-1.062,0.186-1.63,0.186h0h-11.44
	c-3.635,0-6.923-2.641-7.309-5.892l-5.747-48.348c-0.436-3.664,2.396-6.684,6.296-6.684h12.273c3.899,0,7.36,3.02,7.687,6.684
	l4.321,48.348c0.018,0.203,0.025,0.404,0.02,0.602C137.08,365.005,136.119,366.553,134.621,367.507z M318.232,314.273l-5.747,48.348
	c-0.241,2.032-1.616,3.826-3.501,4.885c-1.131,0.636-2.445,1.007-3.808,1.007h-11.44c-1.363,0-2.6-0.371-3.598-1.007
	c-1.498-0.954-2.458-2.502-2.503-4.283c-0.005-0.198,0.001-0.399,0.02-0.602l4.321-48.348c0.082-0.916,0.36-1.792,0.791-2.59
	c0.324-0.599,0.734-1.154,1.212-1.65c0.16-0.165,0.327-0.324,0.501-0.476c0.871-0.758,1.916-1.338,3.054-1.665
	c0.683-0.197,1.398-0.303,2.129-0.303h12.273C315.836,307.589,318.668,310.609,318.232,314.273z"/>
<polygon style="fill:#96275B;" points="69.609,219.002 355.151,219.002 356.797,207.639 67.963,207.639 "/>
<path style="fill:#C64873;" d="M358.918,176.851h-22.361l2.728,7.848c1.252,3.602-0.671,7.574-4.273,8.827l-2.053,0.713v0
	l-3.011,1.047c-3.602,1.252-7.574-0.671-8.826-4.273l-4.922-14.161H108.998l-4.922,14.161c-0.293,0.844-0.736,1.596-1.289,2.237
	c-0.184,0.214-0.38,0.415-0.588,0.603c-1.822,1.655-4.474,2.294-6.95,1.434l-3.011-1.047v0l-2.053-0.713
	c-3.602-1.252-5.525-5.224-4.273-8.827l2.728-7.848H66.279c-4.054,0-7.372,3.317-7.372,7.372v11.551c0,0,0,0,0,0v-0.022H366.29
	v-11.529C366.29,180.168,362.972,176.851,358.918,176.851z"/>
<polygon style="fill:#BC4374;" points="58.908,207.639 58.908,207.639 67.963,207.639 356.797,207.639 366.29,207.639 
	366.29,207.639 366.29,195.751 58.908,195.751 "/>
<path style="fill:#E4E1CF;" d="M90.185,193.525l2.053,0.713l52.474-147.587l-3.099-1.077c-3.602-1.252-7.574,0.671-8.827,4.273
	L88.64,176.851l-2.728,7.848C84.66,188.301,86.583,192.273,90.185,193.525z"/>
<path style="fill:#BBB9A8;" d="M92.238,194.239l3.011,1.047c2.477,0.861,5.128,0.221,6.95-1.434
	c0.207-0.188,0.403-0.389,0.588-0.603c0.552-0.64,0.995-1.392,1.289-2.237l46.874-134.851c1.252-3.603-0.671-7.575-4.273-8.827
	l-1.964-0.683L92.238,194.239L92.238,194.239z"/>
<path style="fill:#E4E1CF;" d="M335.012,193.525c3.602-1.252,5.525-5.224,4.273-8.827l-2.728-7.848L292.411,49.848
	c-1.252-3.603-5.224-5.525-8.827-4.273l-3.099,1.077l52.474,147.587L335.012,193.525z"/>
<path style="fill:#BBB9A8;" d="M329.948,195.285l3.011-1.047v0L280.486,46.652l-1.965,0.683c-3.602,1.252-5.525,5.224-4.273,8.827
	l41.951,120.69l4.922,14.161C322.374,194.615,326.346,196.538,329.948,195.285z"/>
</svg>
