<svg width="560" height="560" viewBox="0 0 560 560" fill="none" xmlns="http://www.w3.org/2000/svg">
<circle cx="299.5" cy="301.5" r="175.5" fill="#F1F3FF"/>
<circle cx="103" cy="252" r="40" fill="#F1F3FF"/>
<circle cx="180" cy="92" r="25" fill="#F1F3FF"/>
<circle cx="455.5" cy="124.5" r="19.5" fill="#F1F3FF"/>
<circle cx="449.5" cy="417.5" r="9.5" fill="#F1F3FF"/>
<path d="M345.247 135.69C344.501 135.532 344.501 134.468 345.247 134.31L356.517 131.913C356.789 131.855 357.001 131.643 357.06 131.372L359.487 120.181C359.647 119.44 360.705 119.44 360.866 120.181L363.293 131.372C363.352 131.643 363.564 131.855 363.836 131.913L375.106 134.31C375.852 134.468 375.852 135.532 375.106 135.69L363.836 138.087C363.564 138.145 363.352 138.357 363.293 138.628L360.866 149.819C360.705 150.56 359.647 150.56 359.487 149.819L357.06 138.628C357.001 138.357 356.789 138.145 356.517 138.087L345.247 135.69Z" fill="#C4CBF5"/>
<path d="M92.711 324.103C92.9348 323.046 94.4439 323.046 94.6676 324.103L98.0105 339.895C98.0919 340.28 98.3915 340.582 98.7759 340.665L114.405 344.07C115.455 344.299 115.455 345.796 114.405 346.025L98.7759 349.429C98.3915 349.513 98.0919 349.814 98.0105 350.199L94.6676 365.992C94.4439 367.049 92.9348 367.049 92.711 365.992L89.3682 350.199C89.2867 349.814 88.9871 349.513 88.6027 349.429L72.9732 346.025C71.9237 345.796 71.9237 344.299 72.9732 344.07L88.6027 340.665C88.9871 340.582 89.2867 340.28 89.3682 339.895L92.711 324.103Z" fill="#C4CBF5"/>
<path d="M345.68 461.953C345.904 460.895 347.413 460.895 347.637 461.953L349.587 471.166C349.668 471.55 349.968 471.852 350.352 471.936L359.496 473.928C360.546 474.156 360.546 475.653 359.496 475.882L350.352 477.874C349.968 477.957 349.668 478.259 349.587 478.644L347.637 487.857C347.413 488.914 345.904 488.914 345.68 487.857L343.73 478.644C343.649 478.259 343.349 477.957 342.965 477.874L333.821 475.882C332.771 475.653 332.771 474.156 333.821 473.928L342.965 471.936C343.349 471.852 343.649 471.55 343.73 471.166L345.68 461.953Z" fill="#C4CBF5"/>
<path d="M466.545 194.334L344.157 170.882C338.733 169.843 333.493 173.397 332.454 178.821L301.097 342.462C300.505 345.548 301.399 348.733 303.509 351.061L360.383 413.794C363.686 417.437 369.146 418.138 373.262 415.449L439.55 372.13C441.82 370.646 443.39 368.304 443.9 365.641L474.484 206.038C475.523 200.613 471.969 195.374 466.545 194.334Z" fill="#C4CBF5"/>
<path d="M379.938 228.503C370.883 226.569 361.988 232.267 360.072 241.234C358.526 248.472 357.726 266.263 382.263 289.662C382.703 290.078 383.249 290.365 383.841 290.492C384.433 290.618 385.049 290.58 385.621 290.38C417.577 279.049 424.117 262.484 425.663 255.246C427.578 246.28 421.788 237.444 412.733 235.509C403.679 233.575 394.234 241.845 394.234 241.845C394.234 241.845 388.993 230.438 379.938 228.503Z" fill="white"/>
<circle cx="370.046" cy="373" r="13" fill="#F1F3FF"/>
<path d="M236.85 118.2L73.7211 177.286C67.4899 179.543 64.2681 186.424 66.5251 192.656L144.174 407.036C145.459 410.581 148.334 413.317 151.939 414.422L264.634 448.977C270.275 450.706 276.337 448.078 278.93 442.779L327.405 343.729C328.836 340.806 329.018 337.427 327.91 334.368L252.22 125.396C249.963 119.165 243.081 115.943 236.85 118.2Z" fill="url(#paint0_linear_116_2154)" stroke="#C4CBF5" stroke-width="4"/>
<path d="M184.169 221.473C184 222.089 183.55 222.589 182.956 222.822C182.362 223.055 181.693 222.994 181.15 222.658C181.15 222.658 181.15 222.658 181.15 222.658C181.15 222.658 181.15 222.658 181.15 222.658L181.149 222.657M184.169 221.473L181.149 222.657M184.169 221.473C184.169 221.473 184.169 221.473 184.169 221.473L184.17 221.468L184.179 221.438C184.187 221.409 184.2 221.363 184.218 221.302C184.254 221.179 184.311 220.992 184.388 220.749C184.543 220.263 184.78 219.555 185.106 218.685C185.76 216.942 186.762 214.569 188.156 212.047C190.978 206.938 195.23 201.537 201.141 199.217C213.253 194.465 226.856 200.339 231.544 212.287C233.497 217.263 235.859 226.166 233.953 238.867C232.045 251.581 225.841 268.226 210.461 288.642C210.127 289.08 209.68 289.417 209.167 289.618C208.655 289.819 208.098 289.876 207.555 289.782C182.395 285.274 166.527 277.291 156.481 269.268C146.446 261.252 142.123 253.119 140.17 248.142C135.482 236.195 141.459 222.637 153.571 217.884C159.482 215.565 166.272 216.633 171.816 218.459C174.553 219.36 176.902 220.418 178.566 221.252C179.397 221.667 180.053 222.025 180.496 222.276C180.718 222.402 180.887 222.5 180.997 222.566C181.052 222.599 181.093 222.623 181.118 222.639L181.145 222.655L181.149 222.657M184.169 221.473L181.149 222.657" fill="#C4CBF5" stroke="#C4CBF5" stroke-width="4.04771" stroke-linecap="round" stroke-linejoin="round"/>
<circle cx="248.546" cy="392.5" r="16.5" fill="#C4CBF5"/>
<defs>
<linearGradient id="paint0_linear_116_2154" x1="155.967" y1="149.624" x2="265.625" y2="452.376" gradientUnits="userSpaceOnUse">
<stop offset="0.278086" stop-color="#F1F3FF"/>
<stop offset="1" stop-color="white"/>
</linearGradient>
</defs>
</svg>
